<svg width="1440" height="140" viewBox="0 0 1440 140" fill="none" xmlns="http://www.w3.org/2000/svg">
<path fill-rule="evenodd" clip-rule="evenodd" d="M0 0C99 6.30485e-06 160 70 240 87.3988C320 105.202 400 105.202 480 96.3006C560 87.3988 640 70 720 52.6012C800 35.2023 880 17.8035 960 20.6358C1040 23.4682 1120 46.9364 1200 52.6012C1280 58.2659 1381 0 1440 0V140H1400C1360 140 1280 140 1200 140C1120 140 1040 140 960 140C880 140 800 140 720 140C640 140 560 140 480 140C400 140 320 140 240 140C160 140 80 140 40 140H0V0Z" fill="white"/>
</svg>
